solid OpenSCAD_Model
  facet normal 0 0 1
    outer loop
      vertex 1.48778 0.483409 9.87688
      vertex 1.48778 -0.483409 9.87688
      vertex 1.56434 0 9.87688
    endloop
  endfacet
  facet normal 0 0 1
    outer loop
      vertex 1.26558 0.919499 9.87688
      vertex 1.48778 -0.483409 9.87688
      vertex 1.48778 0.483409 9.87688
    endloop
  endfacet
  facet normal 0 0 1
    outer loop
      vertex 1.26558 0.919499 9.87688
      vertex 1.26558 -0.919499 9.87688
      vertex 1.48778 -0.483409 9.87688
    endloop
  endfacet
  facet normal 0 0 1
    outer loop
      vertex 0.919499 1.26558 9.87688
      vertex 1.26558 -0.919499 9.87688
      vertex 1.26558 0.919499 9.87688
    endloop
  endfacet
  facet normal 0 0 1
    outer loop
      vertex 0.919499 1.26558 9.87688
      vertex 0.919499 -1.26558 9.87688
      vertex 1.26558 -0.919499 9.87688
    endloop
  endfacet
  facet normal 0 0 1
    outer loop
      vertex 0.483409 1.48778 9.87688
      vertex 0.919499 -1.26558 9.87688
      vertex 0.919499 1.26558 9.87688
    endloop
  endfacet
  facet normal 0 0 1
    outer loop
      vertex 0.483409 1.48778 9.87688
      vertex 0.483409 -1.48778 9.87688
      vertex 0.919499 -1.26558 9.87688
    endloop
  endfacet
  facet normal 0 0 1
    outer loop
      vertex 0 1.56434 9.87688
      vertex 0.483409 -1.48778 9.87688
      vertex 0.483409 1.48778 9.87688
    endloop
  endfacet
  facet normal 0 0 1
    outer loop
      vertex 0 1.56434 9.87688
      vertex -0 -1.56434 9.87688
      vertex 0.483409 -1.48778 9.87688
    endloop
  endfacet
  facet normal -0 0 1
    outer loop
      vertex -0.483409 1.48778 9.87688
      vertex -0 -1.56434 9.87688
      vertex 0 1.56434 9.87688
    endloop
  endfacet
  facet normal 0 0 1
    outer loop
      vertex -0.483409 1.48778 9.87688
      vertex -0.483409 -1.48778 9.87688
      vertex -0 -1.56434 9.87688
    endloop
  endfacet
  facet normal -0 0 1
    outer loop
      vertex -0.919499 1.26558 9.87688
      vertex -0.483409 -1.48778 9.87688
      vertex -0.483409 1.48778 9.87688
    endloop
  endfacet
  facet normal 0 0 1
    outer loop
      vertex -0.919499 1.26558 9.87688
      vertex -0.919499 -1.26558 9.87688
      vertex -0.483409 -1.48778 9.87688
    endloop
  endfacet
  facet normal -0 0 1
    outer loop
      vertex -1.26558 0.919499 9.87688
      vertex -0.919499 -1.26558 9.87688
      vertex -0.919499 1.26558 9.87688
    endloop
  endfacet
  facet normal 0 0 1
    outer loop
      vertex -1.26558 0.919499 9.87688
      vertex -1.26558 -0.919499 9.87688
      vertex -0.919499 -1.26558 9.87688
    endloop
  endfacet
  facet normal -0 0 1
    outer loop
      vertex -1.48778 0.483409 9.87688
      vertex -1.26558 -0.919499 9.87688
      vertex -1.26558 0.919499 9.87688
    endloop
  endfacet
  facet normal 0 0 1
    outer loop
      vertex -1.48778 0.483409 9.87688
      vertex -1.48778 -0.483409 9.87688
      vertex -1.26558 -0.919499 9.87688
    endloop
  endfacet
  facet normal 0 -0 1
    outer loop
      vertex -1.48778 -0.483409 9.87688
      vertex -1.48778 0.483409 9.87688
      vertex -1.56434 -0 9.87688
    endloop
  endfacet
  facet normal 0.308644 0.0488846 0.949921
    outer loop
      vertex 4.53991 0 8.91007
      vertex 4.31771 1.40291 8.91007
      vertex 1.56434 0 9.87688
    endloop
  endfacet
  facet normal 0.308646 0.0488818 0.94992
    outer loop
      vertex 4.31771 1.40291 8.91007
      vertex 1.48778 0.483409 9.87688
      vertex 1.56434 0 9.87688
    endloop
  endfacet
  facet normal 0.278432 0.141869 0.94992
    outer loop
      vertex 4.31771 1.40291 8.91007
      vertex 3.67286 2.66849 8.91007
      vertex 1.48778 0.483409 9.87688
    endloop
  endfacet
  facet normal 0.278432 0.141869 0.94992
    outer loop
      vertex 3.67286 2.66849 8.91007
      vertex 1.26558 0.919499 9.87688
      vertex 1.48778 0.483409 9.87688
    endloop
  endfacet
  facet normal 0.220965 0.220965 0.94992
    outer loop
      vertex 3.67286 2.66849 8.91007
      vertex 2.66849 3.67286 8.91007
      vertex 1.26558 0.919499 9.87688
    endloop
  endfacet
  facet normal 0.220965 0.220965 0.94992
    outer loop
      vertex 2.66849 3.67286 8.91007
      vertex 0.919499 1.26558 9.87688
      vertex 1.26558 0.919499 9.87688
    endloop
  endfacet
  facet normal 0.141869 0.278432 0.94992
    outer loop
      vertex 2.66849 3.67286 8.91007
      vertex 1.40291 4.31771 8.91007
      vertex 0.919499 1.26558 9.87688
    endloop
  endfacet
  facet normal 0.141869 0.278432 0.94992
    outer loop
      vertex 1.40291 4.31771 8.91007
      vertex 0.483409 1.48778 9.87688
      vertex 0.919499 1.26558 9.87688
    endloop
  endfacet
  facet normal 0.0488847 0.308645 0.94992
    outer loop
      vertex 1.40291 4.31771 8.91007
      vertex 0 4.53991 8.91007
      vertex 0.483409 1.48778 9.87688
    endloop
  endfacet
  facet normal 0.0488816 0.308644 0.949921
    outer loop
      vertex 0 4.53991 8.91007
      vertex 0 1.56434 9.87688
      vertex 0.483409 1.48778 9.87688
    endloop
  endfacet
  facet normal -0.0488846 0.308644 0.949921
    outer loop
      vertex 0 4.53991 8.91007
      vertex -1.40291 4.31771 8.91007
      vertex 0 1.56434 9.87688
    endloop
  endfacet
  facet normal -0.0488818 0.308646 0.94992
    outer loop
      vertex -1.40291 4.31771 8.91007
      vertex -0.483409 1.48778 9.87688
      vertex 0 1.56434 9.87688
    endloop
  endfacet
  facet normal -0.141869 0.278432 0.94992
    outer loop
      vertex -1.40291 4.31771 8.91007
      vertex -2.66849 3.67286 8.91007
      vertex -0.483409 1.48778 9.87688
    endloop
  endfacet
  facet normal -0.141869 0.278432 0.94992
    outer loop
      vertex -2.66849 3.67286 8.91007
      vertex -0.919499 1.26558 9.87688
      vertex -0.483409 1.48778 9.87688
    endloop
  endfacet
  facet normal -0.220965 0.220965 0.94992
    outer loop
      vertex -2.66849 3.67286 8.91007
      vertex -3.67286 2.66849 8.91007
      vertex -0.919499 1.26558 9.87688
    endloop
  endfacet
  facet normal -0.220965 0.220965 0.94992
    outer loop
      vertex -3.67286 2.66849 8.91007
      vertex -1.26558 0.919499 9.87688
      vertex -0.919499 1.26558 9.87688
    endloop
  endfacet
  facet normal -0.278432 0.141869 0.94992
    outer loop
      vertex -3.67286 2.66849 8.91007
      vertex -4.31771 1.40291 8.91007
      vertex -1.26558 0.919499 9.87688
    endloop
  endfacet
  facet normal -0.278432 0.141869 0.94992
    outer loop
      vertex -4.31771 1.40291 8.91007
      vertex -1.48778 0.483409 9.87688
      vertex -1.26558 0.919499 9.87688
    endloop
  endfacet
  facet normal -0.308645 0.0488847 0.94992
    outer loop
      vertex -4.31771 1.40291 8.91007
      vertex -4.53991 -0 8.91007
      vertex -1.48778 0.483409 9.87688
    endloop
  endfacet
  facet normal -0.308644 0.0488816 0.949921
    outer loop
      vertex -4.53991 -0 8.91007
      vertex -1.56434 -0 9.87688
      vertex -1.48778 0.483409 9.87688
    endloop
  endfacet
  facet normal -0.308644 -0.0488846 0.949921
    outer loop
      vertex -4.53991 -0 8.91007
      vertex -4.31771 -1.40291 8.91007
      vertex -1.56434 -0 9.87688
    endloop
  endfacet
  facet normal -0.308646 -0.0488818 0.94992
    outer loop
      vertex -4.31771 -1.40291 8.91007
      vertex -1.48778 -0.483409 9.87688
      vertex -1.56434 -0 9.87688
    endloop
  endfacet
  facet normal -0.278432 -0.141869 0.94992
    outer loop
      vertex -4.31771 -1.40291 8.91007
      vertex -3.67286 -2.66849 8.91007
      vertex -1.48778 -0.483409 9.87688
    endloop
  endfacet
  facet normal -0.278432 -0.141869 0.94992
    outer loop
      vertex -3.67286 -2.66849 8.91007
      vertex -1.26558 -0.919499 9.87688
      vertex -1.48778 -0.483409 9.87688
    endloop
  endfacet
  facet normal -0.220965 -0.220965 0.94992
    outer loop
      vertex -3.67286 -2.66849 8.91007
      vertex -2.66849 -3.67286 8.91007
      vertex -1.26558 -0.919499 9.87688
    endloop
  endfacet
  facet normal -0.220965 -0.220965 0.94992
    outer loop
      vertex -2.66849 -3.67286 8.91007
      vertex -0.919499 -1.26558 9.87688
      vertex -1.26558 -0.919499 9.87688
    endloop
  endfacet
  facet normal -0.141869 -0.278432 0.94992
    outer loop
      vertex -2.66849 -3.67286 8.91007
      vertex -1.40291 -4.31771 8.91007
      vertex -0.919499 -1.26558 9.87688
    endloop
  endfacet
  facet normal -0.141869 -0.278432 0.94992
    outer loop
      vertex -1.40291 -4.31771 8.91007
      vertex -0.483409 -1.48778 9.87688
      vertex -0.919499 -1.26558 9.87688
    endloop
  endfacet
  facet normal -0.0488847 -0.308645 0.94992
    outer loop
      vertex -1.40291 -4.31771 8.91007
      vertex -0 -4.53991 8.91007
      vertex -0.483409 -1.48778 9.87688
    endloop
  endfacet
  facet normal -0.0488816 -0.308644 0.949921
    outer loop
      vertex -0 -4.53991 8.91007
      vertex -0 -1.56434 9.87688
      vertex -0.483409 -1.48778 9.87688
    endloop
  endfacet
  facet normal 0.0488846 -0.308644 0.949921
    outer loop
      vertex -0 -4.53991 8.91007
      vertex 1.40291 -4.31771 8.91007
      vertex -0 -1.56434 9.87688
    endloop
  endfacet
  facet normal 0.0488818 -0.308646 0.94992
    outer loop
      vertex 1.40291 -4.31771 8.91007
      vertex 0.483409 -1.48778 9.87688
      vertex -0 -1.56434 9.87688
    endloop
  endfacet
  facet normal 0.141869 -0.278432 0.94992
    outer loop
      vertex 1.40291 -4.31771 8.91007
      vertex 2.66849 -3.67286 8.91007
      vertex 0.483409 -1.48778 9.87688
    endloop
  endfacet
  facet normal 0.141869 -0.278432 0.94992
    outer loop
      vertex 2.66849 -3.67286 8.91007
      vertex 0.919499 -1.26558 9.87688
      vertex 0.483409 -1.48778 9.87688
    endloop
  endfacet
  facet normal 0.220965 -0.220965 0.94992
    outer loop
      vertex 2.66849 -3.67286 8.91007
      vertex 3.67286 -2.66849 8.91007
      vertex 0.919499 -1.26558 9.87688
    endloop
  endfacet
  facet normal 0.220965 -0.220965 0.94992
    outer loop
      vertex 3.67286 -2.66849 8.91007
      vertex 1.26558 -0.919499 9.87688
      vertex 0.919499 -1.26558 9.87688
    endloop
  endfacet
  facet normal 0.278432 -0.141869 0.94992
    outer loop
      vertex 3.67286 -2.66849 8.91007
      vertex 4.31771 -1.40291 8.91007
      vertex 1.26558 -0.919499 9.87688
    endloop
  endfacet
  facet normal 0.278432 -0.141869 0.94992
    outer loop
      vertex 4.31771 -1.40291 8.91007
      vertex 1.48778 -0.483409 9.87688
      vertex 1.26558 -0.919499 9.87688
    endloop
  endfacet
  facet normal 0.308645 -0.0488847 0.94992
    outer loop
      vertex 4.31771 -1.40291 8.91007
      vertex 4.53991 0 8.91007
      vertex 1.48778 -0.483409 9.87688
    endloop
  endfacet
  facet normal 0.308644 -0.0488816 0.949921
    outer loop
      vertex 4.53991 0 8.91007
      vertex 1.56434 0 9.87688
      vertex 1.48778 -0.483409 9.87688
    endloop
  endfacet
  facet normal 0.585256 0.0926947 0.805533
    outer loop
      vertex 7.07107 0 7.07107
      vertex 6.72499 2.18508 7.07107
      vertex 4.53991 0 8.91007
    endloop
  endfacet
  facet normal 0.585255 0.0926956 0.805534
    outer loop
      vertex 6.72499 2.18508 7.07107
      vertex 4.31771 1.40291 8.91007
      vertex 4.53991 0 8.91007
    endloop
  endfacet
  facet normal 0.527966 0.269014 0.805533
    outer loop
      vertex 6.72499 2.18508 7.07107
      vertex 5.72061 4.15627 7.07107
      vertex 4.31771 1.40291 8.91007
    endloop
  endfacet
  facet normal 0.527966 0.269014 0.805533
    outer loop
      vertex 5.72061 4.15627 7.07107
      vertex 3.67286 2.66849 8.91007
      vertex 4.31771 1.40291 8.91007
    endloop
  endfacet
  facet normal 0.418997 0.418997 0.805533
    outer loop
      vertex 5.72061 4.15627 7.07107
      vertex 4.15627 5.72061 7.07107
      vertex 3.67286 2.66849 8.91007
    endloop
  endfacet
  facet normal 0.418997 0.418997 0.805533
    outer loop
      vertex 4.15627 5.72061 7.07107
      vertex 2.66849 3.67286 8.91007
      vertex 3.67286 2.66849 8.91007
    endloop
  endfacet
  facet normal 0.269014 0.527966 0.805533
    outer loop
      vertex 4.15627 5.72061 7.07107
      vertex 2.18508 6.72499 7.07107
      vertex 2.66849 3.67286 8.91007
    endloop
  endfacet
  facet normal 0.269014 0.527966 0.805533
    outer loop
      vertex 2.18508 6.72499 7.07107
      vertex 1.40291 4.31771 8.91007
      vertex 2.66849 3.67286 8.91007
    endloop
  endfacet
  facet normal 0.0926946 0.585255 0.805533
    outer loop
      vertex 2.18508 6.72499 7.07107
      vertex 0 7.07107 7.07107
      vertex 1.40291 4.31771 8.91007
    endloop
  endfacet
  facet normal 0.0926957 0.585255 0.805533
    outer loop
      vertex 0 7.07107 7.07107
      vertex 0 4.53991 8.91007
      vertex 1.40291 4.31771 8.91007
    endloop
  endfacet
  facet normal -0.0926947 0.585256 0.805533
    outer loop
      vertex 0 7.07107 7.07107
      vertex -2.18508 6.72499 7.07107
      vertex 0 4.53991 8.91007
    endloop
  endfacet
  facet normal -0.0926956 0.585255 0.805534
    outer loop
      vertex -2.18508 6.72499 7.07107
      vertex -1.40291 4.31771 8.91007
      vertex 0 4.53991 8.91007
    endloop
  endfacet
  facet normal -0.269014 0.527966 0.805533
    outer loop
      vertex -2.18508 6.72499 7.07107
      vertex -4.15627 5.72061 7.07107
      vertex -1.40291 4.31771 8.91007
    endloop
  endfacet
  facet normal -0.269014 0.527966 0.805533
    outer loop
      vertex -4.15627 5.72061 7.07107
      vertex -2.66849 3.67286 8.91007
      vertex -1.40291 4.31771 8.91007
    endloop
  endfacet
  facet normal -0.418997 0.418997 0.805533
    outer loop
      vertex -4.15627 5.72061 7.07107
      vertex -5.72061 4.15627 7.07107
      vertex -2.66849 3.67286 8.91007
    endloop
  endfacet
  facet normal -0.418997 0.418997 0.805533
    outer loop
      vertex -5.72061 4.15627 7.07107
      vertex -3.67286 2.66849 8.91007
      vertex -2.66849 3.67286 8.91007
    endloop
  endfacet
  facet normal -0.527966 0.269014 0.805533
    outer loop
      vertex -5.72061 4.15627 7.07107
      vertex -6.72499 2.18508 7.07107
      vertex -3.67286 2.66849 8.91007
    endloop
  endfacet
  facet normal -0.527966 0.269014 0.805533
    outer loop
      vertex -6.72499 2.18508 7.07107
      vertex -4.31771 1.40291 8.91007
      vertex -3.67286 2.66849 8.91007
    endloop
  endfacet
  facet normal -0.585255 0.0926946 0.805533
    outer loop
      vertex -6.72499 2.18508 7.07107
      vertex -7.07107 -0 7.07107
      vertex -4.31771 1.40291 8.91007
    endloop
  endfacet
  facet normal -0.585255 0.0926957 0.805533
    outer loop
      vertex -7.07107 -0 7.07107
      vertex -4.53991 -0 8.91007
      vertex -4.31771 1.40291 8.91007
    endloop
  endfacet
  facet normal -0.585256 -0.0926947 0.805533
    outer loop
      vertex -7.07107 -0 7.07107
      vertex -6.72499 -2.18508 7.07107
      vertex -4.53991 -0 8.91007
    endloop
  endfacet
  facet normal -0.585255 -0.0926956 0.805534
    outer loop
      vertex -6.72499 -2.18508 7.07107
      vertex -4.31771 -1.40291 8.91007
      vertex -4.53991 -0 8.91007
    endloop
  endfacet
  facet normal -0.527966 -0.269014 0.805533
    outer loop
      vertex -6.72499 -2.18508 7.07107
      vertex -5.72061 -4.15627 7.07107
      vertex -4.31771 -1.40291 8.91007
    endloop
  endfacet
  facet normal -0.527966 -0.269014 0.805533
    outer loop
      vertex -5.72061 -4.15627 7.07107
      vertex -3.67286 -2.66849 8.91007
      vertex -4.31771 -1.40291 8.91007
    endloop
  endfacet
  facet normal -0.418997 -0.418997 0.805533
    outer loop
      vertex -5.72061 -4.15627 7.07107
      vertex -4.15627 -5.72061 7.07107
      vertex -3.67286 -2.66849 8.91007
    endloop
  endfacet
  facet normal -0.418997 -0.418997 0.805533
    outer loop
      vertex -4.15627 -5.72061 7.07107
      vertex -2.66849 -3.67286 8.91007
      vertex -3.67286 -2.66849 8.91007
    endloop
  endfacet
  facet normal -0.269014 -0.527966 0.805533
    outer loop
      vertex -4.15627 -5.72061 7.07107
      vertex -2.18508 -6.72499 7.07107
      vertex -2.66849 -3.67286 8.91007
    endloop
  endfacet
  facet normal -0.269014 -0.527966 0.805533
    outer loop
      vertex -2.18508 -6.72499 7.07107
      vertex -1.40291 -4.31771 8.91007
      vertex -2.66849 -3.67286 8.91007
    endloop
  endfacet
  facet normal -0.0926946 -0.585255 0.805533
    outer loop
      vertex -2.18508 -6.72499 7.07107
      vertex -0 -7.07107 7.07107
      vertex -1.40291 -4.31771 8.91007
    endloop
  endfacet
  facet normal -0.0926957 -0.585255 0.805533
    outer loop
      vertex -0 -7.07107 7.07107
      vertex -0 -4.53991 8.91007
      vertex -1.40291 -4.31771 8.91007
    endloop
  endfacet
  facet normal 0.0926947 -0.585256 0.805533
    outer loop
      vertex -0 -7.07107 7.07107
      vertex 2.18508 -6.72499 7.07107
      vertex -0 -4.53991 8.91007
    endloop
  endfacet
  facet normal 0.0926956 -0.585255 0.805534
    outer loop
      vertex 2.18508 -6.72499 7.07107
      vertex 1.40291 -4.31771 8.91007
      vertex -0 -4.53991 8.91007
    endloop
  endfacet
  facet normal 0.269014 -0.527966 0.805533
    outer loop
      vertex 2.18508 -6.72499 7.07107
      vertex 4.15627 -5.72061 7.07107
      vertex 1.40291 -4.31771 8.91007
    endloop
  endfacet
  facet normal 0.269014 -0.527966 0.805533
    outer loop
      vertex 4.15627 -5.72061 7.07107
      vertex 2.66849 -3.67286 8.91007
      vertex 1.40291 -4.31771 8.91007
    endloop
  endfacet
  facet normal 0.418997 -0.418997 0.805533
    outer loop
      vertex 4.15627 -5.72061 7.07107
      vertex 5.72061 -4.15627 7.07107
      vertex 2.66849 -3.67286 8.91007
    endloop
  endfacet
  facet normal 0.418997 -0.418997 0.805533
    outer loop
      vertex 5.72061 -4.15627 7.07107
      vertex 3.67286 -2.66849 8.91007
      vertex 2.66849 -3.67286 8.91007
    endloop
  endfacet
  facet normal 0.527966 -0.269014 0.805533
    outer loop
      vertex 5.72061 -4.15627 7.07107
      vertex 6.72499 -2.18508 7.07107
      vertex 3.67286 -2.66849 8.91007
    endloop
  endfacet
  facet normal 0.527966 -0.269014 0.805533
    outer loop
      vertex 6.72499 -2.18508 7.07107
      vertex 4.31771 -1.40291 8.91007
      vertex 3.67286 -2.66849 8.91007
    endloop
  endfacet
  facet normal 0.585255 -0.0926946 0.805533
    outer loop
      vertex 6.72499 -2.18508 7.07107
      vertex 7.07107 0 7.07107
      vertex 4.31771 -1.40291 8.91007
    endloop
  endfacet
  facet normal 0.585255 -0.0926957 0.805533
    outer loop
      vertex 7.07107 0 7.07107
      vertex 4.53991 0 8.91007
      vertex 4.31771 -1.40291 8.91007
    endloop
  endfacet
  facet normal 0.802455 0.127097 0.583019
    outer loop
      vertex 8.91007 0 4.53991
      vertex 8.47398 2.75336 4.53991
      vertex 7.07107 0 7.07107
    endloop
  endfacet
  facet normal 0.802456 0.127096 0.583019
    outer loop
      vertex 8.47398 2.75336 4.53991
      vertex 6.72499 2.18508 7.07107
      vertex 7.07107 0 7.07107
    endloop
  endfacet
  facet normal 0.723905 0.36885 0.583019
    outer loop
      vertex 8.47398 2.75336 4.53991
      vertex 7.20839 5.23721 4.53991
      vertex 6.72499 2.18508 7.07107
    endloop
  endfacet
  facet normal 0.723904 0.368851 0.58302
    outer loop
      vertex 7.20839 5.23721 4.53991
      vertex 5.72061 4.15627 7.07107
      vertex 6.72499 2.18508 7.07107
    endloop
  endfacet
  facet normal 0.574495 0.574495 0.58302
    outer loop
      vertex 7.20839 5.23721 4.53991
      vertex 5.23721 7.20839 4.53991
      vertex 5.72061 4.15627 7.07107
    endloop
  endfacet
  facet normal 0.574495 0.574495 0.58302
    outer loop
      vertex 5.23721 7.20839 4.53991
      vertex 4.15627 5.72061 7.07107
      vertex 5.72061 4.15627 7.07107
    endloop
  endfacet
  facet normal 0.36885 0.723905 0.583019
    outer loop
      vertex 5.23721 7.20839 4.53991
      vertex 2.75336 8.47398 4.53991
      vertex 4.15627 5.72061 7.07107
    endloop
  endfacet
  facet normal 0.368851 0.723905 0.583019
    outer loop
      vertex 2.75336 8.47398 4.53991
      vertex 2.18508 6.72499 7.07107
      vertex 4.15627 5.72061 7.07107
    endloop
  endfacet
  facet normal 0.127097 0.802456 0.583019
    outer loop
      vertex 2.75336 8.47398 4.53991
      vertex 0 8.91007 4.53991
      vertex 2.18508 6.72499 7.07107
    endloop
  endfacet
  facet normal 0.127095 0.802456 0.58302
    outer loop
      vertex 0 8.91007 4.53991
      vertex 0 7.07107 7.07107
      vertex 2.18508 6.72499 7.07107
    endloop
  endfacet
  facet normal -0.127097 0.802455 0.583019
    outer loop
      vertex 0 8.91007 4.53991
      vertex -2.75336 8.47398 4.53991
      vertex 0 7.07107 7.07107
    endloop
  endfacet
  facet normal -0.127096 0.802456 0.583019
    outer loop
      vertex -2.75336 8.47398 4.53991
      vertex -2.18508 6.72499 7.07107
      vertex 0 7.07107 7.07107
    endloop
  endfacet
  facet normal -0.36885 0.723905 0.583019
    outer loop
      vertex -2.75336 8.47398 4.53991
      vertex -5.23721 7.20839 4.53991
      vertex -2.18508 6.72499 7.07107
    endloop
  endfacet
  facet normal -0.368851 0.723904 0.58302
    outer loop
      vertex -5.23721 7.20839 4.53991
      vertex -4.15627 5.72061 7.07107
      vertex -2.18508 6.72499 7.07107
    endloop
  endfacet
  facet normal -0.574495 0.574495 0.58302
    outer loop
      vertex -5.23721 7.20839 4.53991
      vertex -7.20839 5.23721 4.53991
      vertex -4.15627 5.72061 7.07107
    endloop
  endfacet
  facet normal -0.574495 0.574495 0.58302
    outer loop
      vertex -7.20839 5.23721 4.53991
      vertex -5.72061 4.15627 7.07107
      vertex -4.15627 5.72061 7.07107
    endloop
  endfacet
  facet normal -0.723905 0.36885 0.583019
    outer loop
      vertex -7.20839 5.23721 4.53991
      vertex -8.47398 2.75336 4.53991
      vertex -5.72061 4.15627 7.07107
    endloop
  endfacet
  facet normal -0.723905 0.368851 0.583019
    outer loop
      vertex -8.47398 2.75336 4.53991
      vertex -6.72499 2.18508 7.07107
      vertex -5.72061 4.15627 7.07107
    endloop
  endfacet
  facet normal -0.802456 0.127097 0.583019
    outer loop
      vertex -8.47398 2.75336 4.53991
      vertex -8.91007 -0 4.53991
      vertex -6.72499 2.18508 7.07107
    endloop
  endfacet
  facet normal -0.802456 0.127095 0.58302
    outer loop
      vertex -8.91007 -0 4.53991
      vertex -7.07107 -0 7.07107
      vertex -6.72499 2.18508 7.07107
    endloop
  endfacet
  facet normal -0.802455 -0.127097 0.583019
    outer loop
      vertex -8.91007 -0 4.53991
      vertex -8.47398 -2.75336 4.53991
      vertex -7.07107 -0 7.07107
    endloop
  endfacet
  facet normal -0.802456 -0.127096 0.583019
    outer loop
      vertex -8.47398 -2.75336 4.53991
      vertex -6.72499 -2.18508 7.07107
      vertex -7.07107 -0 7.07107
    endloop
  endfacet
  facet normal -0.723905 -0.36885 0.583019
    outer loop
      vertex -8.47398 -2.75336 4.53991
      vertex -7.20839 -5.23721 4.53991
      vertex -6.72499 -2.18508 7.07107
    endloop
  endfacet
  facet normal -0.723904 -0.368851 0.58302
    outer loop
      vertex -7.20839 -5.23721 4.53991
      vertex -5.72061 -4.15627 7.07107
      vertex -6.72499 -2.18508 7.07107
    endloop
  endfacet
  facet normal -0.574495 -0.574495 0.58302
    outer loop
      vertex -7.20839 -5.23721 4.53991
      vertex -5.23721 -7.20839 4.53991
      vertex -5.72061 -4.15627 7.07107
    endloop
  endfacet
  facet normal -0.574495 -0.574495 0.58302
    outer loop
      vertex -5.23721 -7.20839 4.53991
      vertex -4.15627 -5.72061 7.07107
      vertex -5.72061 -4.15627 7.07107
    endloop
  endfacet
  facet normal -0.36885 -0.723905 0.583019
    outer loop
      vertex -5.23721 -7.20839 4.53991
      vertex -2.75336 -8.47398 4.53991
      vertex -4.15627 -5.72061 7.07107
    endloop
  endfacet
  facet normal -0.368851 -0.723905 0.583019
    outer loop
      vertex -2.75336 -8.47398 4.53991
      vertex -2.18508 -6.72499 7.07107
      vertex -4.15627 -5.72061 7.07107
    endloop
  endfacet
  facet normal -0.127097 -0.802456 0.583019
    outer loop
      vertex -2.75336 -8.47398 4.53991
      vertex -0 -8.91007 4.53991
      vertex -2.18508 -6.72499 7.07107
    endloop
  endfacet
  facet normal -0.127095 -0.802456 0.58302
    outer loop
      vertex -0 -8.91007 4.53991
      vertex -0 -7.07107 7.07107
      vertex -2.18508 -6.72499 7.07107
    endloop
  endfacet
  facet normal 0.127097 -0.802455 0.583019
    outer loop
      vertex -0 -8.91007 4.53991
      vertex 2.75336 -8.47398 4.53991
      vertex -0 -7.07107 7.07107
    endloop
  endfacet
  facet normal 0.127096 -0.802456 0.583019
    outer loop
      vertex 2.75336 -8.47398 4.53991
      vertex 2.18508 -6.72499 7.07107
      vertex -0 -7.07107 7.07107
    endloop
  endfacet
  facet normal 0.36885 -0.723905 0.583019
    outer loop
      vertex 2.75336 -8.47398 4.53991
      vertex 5.23721 -7.20839 4.53991
      vertex 2.18508 -6.72499 7.07107
    endloop
  endfacet
  facet normal 0.368851 -0.723904 0.58302
    outer loop
      vertex 5.23721 -7.20839 4.53991
      vertex 4.15627 -5.72061 7.07107
      vertex 2.18508 -6.72499 7.07107
    endloop
  endfacet
  facet normal 0.574495 -0.574495 0.58302
    outer loop
      vertex 5.23721 -7.20839 4.53991
      vertex 7.20839 -5.23721 4.53991
      vertex 4.15627 -5.72061 7.07107
    endloop
  endfacet
  facet normal 0.574495 -0.574495 0.58302
    outer loop
      vertex 7.20839 -5.23721 4.53991
      vertex 5.72061 -4.15627 7.07107
      vertex 4.15627 -5.72061 7.07107
    endloop
  endfacet
  facet normal 0.723905 -0.36885 0.583019
    outer loop
      vertex 7.20839 -5.23721 4.53991
      vertex 8.47398 -2.75336 4.53991
      vertex 5.72061 -4.15627 7.07107
    endloop
  endfacet
  facet normal 0.723905 -0.368851 0.583019
    outer loop
      vertex 8.47398 -2.75336 4.53991
      vertex 6.72499 -2.18508 7.07107
      vertex 5.72061 -4.15627 7.07107
    endloop
  endfacet
  facet normal 0.802456 -0.127097 0.583019
    outer loop
      vertex 8.47398 -2.75336 4.53991
      vertex 8.91007 0 4.53991
      vertex 6.72499 -2.18508 7.07107
    endloop
  endfacet
  facet normal 0.802456 -0.127095 0.58302
    outer loop
      vertex 8.91007 0 4.53991
      vertex 7.07107 0 7.07107
      vertex 6.72499 -2.18508 7.07107
    endloop
  endfacet
  facet normal 0.940448 0.148953 0.305566
    outer loop
      vertex 9.87688 0 1.56434
      vertex 9.39347 3.05212 1.56434
      vertex 8.91007 0 4.53991
    endloop
  endfacet
  facet normal 0.940448 0.148953 0.305566
    outer loop
      vertex 9.39347 3.05212 1.56434
      vertex 8.47398 2.75336 4.53991
      vertex 8.91007 0 4.53991
    endloop
  endfacet
  facet normal 0.848392 0.432274 0.305566
    outer loop
      vertex 9.39347 3.05212 1.56434
      vertex 7.99057 5.80549 1.56434
      vertex 8.47398 2.75336 4.53991
    endloop
  endfacet
  facet normal 0.848388 0.432277 0.305571
    outer loop
      vertex 7.99057 5.80549 1.56434
      vertex 7.20839 5.23721 4.53991
      vertex 8.47398 2.75336 4.53991
    endloop
  endfacet
  facet normal 0.673286 0.673286 0.30557
    outer loop
      vertex 7.99057 5.80549 1.56434
      vertex 5.80549 7.99057 1.56434
      vertex 7.20839 5.23721 4.53991
    endloop
  endfacet
  facet normal 0.673286 0.673286 0.30557
    outer loop
      vertex 5.80549 7.99057 1.56434
      vertex 5.23721 7.20839 4.53991
      vertex 7.20839 5.23721 4.53991
    endloop
  endfacet
  facet normal 0.432273 0.848391 0.30557
    outer loop
      vertex 5.80549 7.99057 1.56434
      vertex 3.05212 9.39347 1.56434
      vertex 5.23721 7.20839 4.53991
    endloop
  endfacet
  facet normal 0.432278 0.84839 0.305566
    outer loop
      vertex 3.05212 9.39347 1.56434
      vertex 2.75336 8.47398 4.53991
      vertex 5.23721 7.20839 4.53991
    endloop
  endfacet
  facet normal 0.148953 0.940448 0.305566
    outer loop
      vertex 3.05212 9.39347 1.56434
      vertex 0 9.87688 1.56434
      vertex 2.75336 8.47398 4.53991
    endloop
  endfacet
  facet normal 0.148953 0.940448 0.305566
    outer loop
      vertex 0 9.87688 1.56434
      vertex 0 8.91007 4.53991
      vertex 2.75336 8.47398 4.53991
    endloop
  endfacet
  facet normal -0.148953 0.940448 0.305566
    outer loop
      vertex 0 9.87688 1.56434
      vertex -3.05212 9.39347 1.56434
      vertex 0 8.91007 4.53991
    endloop
  endfacet
  facet normal -0.148953 0.940448 0.305566
    outer loop
      vertex -3.05212 9.39347 1.56434
      vertex -2.75336 8.47398 4.53991
      vertex 0 8.91007 4.53991
    endloop
  endfacet
  facet normal -0.432274 0.848392 0.305566
    outer loop
      vertex -3.05212 9.39347 1.56434
      vertex -5.80549 7.99057 1.56434
      vertex -2.75336 8.47398 4.53991
    endloop
  endfacet
  facet normal -0.432277 0.848388 0.305571
    outer loop
      vertex -5.80549 7.99057 1.56434
      vertex -5.23721 7.20839 4.53991
      vertex -2.75336 8.47398 4.53991
    endloop
  endfacet
  facet normal -0.673286 0.673286 0.30557
    outer loop
      vertex -5.80549 7.99057 1.56434
      vertex -7.99057 5.80549 1.56434
      vertex -5.23721 7.20839 4.53991
    endloop
  endfacet
  facet normal -0.673286 0.673286 0.30557
    outer loop
      vertex -7.99057 5.80549 1.56434
      vertex -7.20839 5.23721 4.53991
      vertex -5.23721 7.20839 4.53991
    endloop
  endfacet
  facet normal -0.848391 0.432273 0.30557
    outer loop
      vertex -7.99057 5.80549 1.56434
      vertex -9.39347 3.05212 1.56434
      vertex -7.20839 5.23721 4.53991
    endloop
  endfacet
  facet normal -0.84839 0.432278 0.305566
    outer loop
      vertex -9.39347 3.05212 1.56434
      vertex -8.47398 2.75336 4.53991
      vertex -7.20839 5.23721 4.53991
    endloop
  endfacet
  facet normal -0.940448 0.148953 0.305566
    outer loop
      vertex -9.39347 3.05212 1.56434
      vertex -9.87688 -0 1.56434
      vertex -8.47398 2.75336 4.53991
    endloop
  endfacet
  facet normal -0.940448 0.148953 0.305566
    outer loop
      vertex -9.87688 -0 1.56434
      vertex -8.91007 -0 4.53991
      vertex -8.47398 2.75336 4.53991
    endloop
  endfacet
  facet normal -0.940448 -0.148953 0.305566
    outer loop
      vertex -9.87688 -0 1.56434
      vertex -9.39347 -3.05212 1.56434
      vertex -8.91007 -0 4.53991
    endloop
  endfacet
  facet normal -0.940448 -0.148953 0.305566
    outer loop
      vertex -9.39347 -3.05212 1.56434
      vertex -8.47398 -2.75336 4.53991
      vertex -8.91007 -0 4.53991
    endloop
  endfacet
  facet normal -0.848392 -0.432274 0.305566
    outer loop
      vertex -9.39347 -3.05212 1.56434
      vertex -7.99057 -5.80549 1.56434
      vertex -8.47398 -2.75336 4.53991
    endloop
  endfacet
  facet normal -0.848388 -0.432277 0.305571
    outer loop
      vertex -7.99057 -5.80549 1.56434
      vertex -7.20839 -5.23721 4.53991
      vertex -8.47398 -2.75336 4.53991
    endloop
  endfacet
  facet normal -0.673286 -0.673286 0.30557
    outer loop
      vertex -7.99057 -5.80549 1.56434
      vertex -5.80549 -7.99057 1.56434
      vertex -7.20839 -5.23721 4.53991
    endloop
  endfacet
  facet normal -0.673286 -0.673286 0.30557
    outer loop
      vertex -5.80549 -7.99057 1.56434
      vertex -5.23721 -7.20839 4.53991
      vertex -7.20839 -5.23721 4.53991
    endloop
  endfacet
  facet normal -0.432273 -0.848391 0.30557
    outer loop
      vertex -5.80549 -7.99057 1.56434
      vertex -3.05212 -9.39347 1.56434
      vertex -5.23721 -7.20839 4.53991
    endloop
  endfacet
  facet normal -0.432278 -0.84839 0.305566
    outer loop
      vertex -3.05212 -9.39347 1.56434
      vertex -2.75336 -8.47398 4.53991
      vertex -5.23721 -7.20839 4.53991
    endloop
  endfacet
  facet normal -0.148953 -0.940448 0.305566
    outer loop
      vertex -3.05212 -9.39347 1.56434
      vertex -0 -9.87688 1.56434
      vertex -2.75336 -8.47398 4.53991
    endloop
  endfacet
  facet normal -0.148953 -0.940448 0.305566
    outer loop
      vertex -0 -9.87688 1.56434
      vertex -0 -8.91007 4.53991
      vertex -2.75336 -8.47398 4.53991
    endloop
  endfacet
  facet normal 0.148953 -0.940448 0.305566
    outer loop
      vertex -0 -9.87688 1.56434
      vertex 3.05212 -9.39347 1.56434
      vertex -0 -8.91007 4.53991
    endloop
  endfacet
  facet normal 0.148953 -0.940448 0.305566
    outer loop
      vertex 3.05212 -9.39347 1.56434
      vertex 2.75336 -8.47398 4.53991
      vertex -0 -8.91007 4.53991
    endloop
  endfacet
  facet normal 0.432274 -0.848392 0.305566
    outer loop
      vertex 3.05212 -9.39347 1.56434
      vertex 5.80549 -7.99057 1.56434
      vertex 2.75336 -8.47398 4.53991
    endloop
  endfacet
  facet normal 0.432277 -0.848388 0.305571
    outer loop
      vertex 5.80549 -7.99057 1.56434
      vertex 5.23721 -7.20839 4.53991
      vertex 2.75336 -8.47398 4.53991
    endloop
  endfacet
  facet normal 0.673286 -0.673286 0.30557
    outer loop
      vertex 5.80549 -7.99057 1.56434
      vertex 7.99057 -5.80549 1.56434
      vertex 5.23721 -7.20839 4.53991
    endloop
  endfacet
  facet normal 0.673286 -0.673286 0.30557
    outer loop
      vertex 7.99057 -5.80549 1.56434
      vertex 7.20839 -5.23721 4.53991
      vertex 5.23721 -7.20839 4.53991
    endloop
  endfacet
  facet normal 0.848391 -0.432273 0.30557
    outer loop
      vertex 7.99057 -5.80549 1.56434
      vertex 9.39347 -3.05212 1.56434
      vertex 7.20839 -5.23721 4.53991
    endloop
  endfacet
  facet normal 0.84839 -0.432278 0.305566
    outer loop
      vertex 9.39347 -3.05212 1.56434
      vertex 8.47398 -2.75336 4.53991
      vertex 7.20839 -5.23721 4.53991
    endloop
  endfacet
  facet normal 0.940448 -0.148953 0.305566
    outer loop
      vertex 9.39347 -3.05212 1.56434
      vertex 9.87688 0 1.56434
      vertex 8.47398 -2.75336 4.53991
    endloop
  endfacet
  facet normal 0.940448 -0.148953 0.305566
    outer loop
      vertex 9.87688 0 1.56434
      vertex 8.91007 0 4.53991
      vertex 8.47398 -2.75336 4.53991
    endloop
  endfacet
  facet normal 0.987688 0.156435 -0
    outer loop
      vertex 9.87688 0 -1.56434
      vertex 9.39347 3.05212 -1.56434
      vertex 9.87688 0 1.56434
    endloop
  endfacet
  facet normal 0.987688 0.156435 -0
    outer loop
      vertex 9.39347 3.05212 -1.56434
      vertex 9.39347 3.05212 1.56434
      vertex 9.87688 0 1.56434
    endloop
  endfacet
  facet normal 0.891008 0.453987 -0
    outer loop
      vertex 9.39347 3.05212 -1.56434
      vertex 7.99057 5.80549 -1.56434
      vertex 9.39347 3.05212 1.56434
    endloop
  endfacet
  facet normal 0.891008 0.453987 -0
    outer loop
      vertex 7.99057 5.80549 -1.56434
      vertex 7.99057 5.80549 1.56434
      vertex 9.39347 3.05212 1.56434
    endloop
  endfacet
  facet normal 0.707107 0.707107 -0
    outer loop
      vertex 7.99057 5.80549 -1.56434
      vertex 5.80549 7.99057 -1.56434
      vertex 7.99057 5.80549 1.56434
    endloop
  endfacet
  facet normal 0.707107 0.707107 -0
    outer loop
      vertex 5.80549 7.99057 -1.56434
      vertex 5.80549 7.99057 1.56434
      vertex 7.99057 5.80549 1.56434
    endloop
  endfacet
  facet normal 0.453987 0.891008 -0
    outer loop
      vertex 5.80549 7.99057 -1.56434
      vertex 3.05212 9.39347 -1.56434
      vertex 5.80549 7.99057 1.56434
    endloop
  endfacet
  facet normal 0.453987 0.891008 -0
    outer loop
      vertex 3.05212 9.39347 -1.56434
      vertex 3.05212 9.39347 1.56434
      vertex 5.80549 7.99057 1.56434
    endloop
  endfacet
  facet normal 0.156435 0.987688 -0
    outer loop
      vertex 3.05212 9.39347 -1.56434
      vertex 0 9.87688 -1.56434
      vertex 3.05212 9.39347 1.56434
    endloop
  endfacet
  facet normal 0.156435 0.987688 -0
    outer loop
      vertex 0 9.87688 -1.56434
      vertex 0 9.87688 1.56434
      vertex 3.05212 9.39347 1.56434
    endloop
  endfacet
  facet normal -0.156435 0.987688 0
    outer loop
      vertex 0 9.87688 -1.56434
      vertex -3.05212 9.39347 -1.56434
      vertex 0 9.87688 1.56434
    endloop
  endfacet
  facet normal -0.156435 0.987688 0
    outer loop
      vertex -3.05212 9.39347 -1.56434
      vertex -3.05212 9.39347 1.56434
      vertex 0 9.87688 1.56434
    endloop
  endfacet
  facet normal -0.453987 0.891008 0
    outer loop
      vertex -3.05212 9.39347 -1.56434
      vertex -5.80549 7.99057 -1.56434
      vertex -3.05212 9.39347 1.56434
    endloop
  endfacet
  facet normal -0.453987 0.891008 0
    outer loop
      vertex -5.80549 7.99057 -1.56434
      vertex -5.80549 7.99057 1.56434
      vertex -3.05212 9.39347 1.56434
    endloop
  endfacet
  facet normal -0.707107 0.707107 0
    outer loop
      vertex -5.80549 7.99057 -1.56434
      vertex -7.99057 5.80549 -1.56434
      vertex -5.80549 7.99057 1.56434
    endloop
  endfacet
  facet normal -0.707107 0.707107 0
    outer loop
      vertex -7.99057 5.80549 -1.56434
      vertex -7.99057 5.80549 1.56434
      vertex -5.80549 7.99057 1.56434
    endloop
  endfacet
  facet normal -0.891008 0.453987 0
    outer loop
      vertex -7.99057 5.80549 -1.56434
      vertex -9.39347 3.05212 -1.56434
      vertex -7.99057 5.80549 1.56434
    endloop
  endfacet
  facet normal -0.891008 0.453987 0
    outer loop
      vertex -9.39347 3.05212 -1.56434
      vertex -9.39347 3.05212 1.56434
      vertex -7.99057 5.80549 1.56434
    endloop
  endfacet
  facet normal -0.987688 0.156435 0
    outer loop
      vertex -9.39347 3.05212 -1.56434
      vertex -9.87688 -0 -1.56434
      vertex -9.39347 3.05212 1.56434
    endloop
  endfacet
  facet normal -0.987688 0.156435 0
    outer loop
      vertex -9.87688 -0 -1.56434
      vertex -9.87688 -0 1.56434
      vertex -9.39347 3.05212 1.56434
    endloop
  endfacet
  facet normal -0.987688 -0.156435 0
    outer loop
      vertex -9.87688 -0 -1.56434
      vertex -9.39347 -3.05212 -1.56434
      vertex -9.87688 -0 1.56434
    endloop
  endfacet
  facet normal -0.987688 -0.156435 0
    outer loop
      vertex -9.39347 -3.05212 -1.56434
      vertex -9.39347 -3.05212 1.56434
      vertex -9.87688 -0 1.56434
    endloop
  endfacet
  facet normal -0.891008 -0.453987 0
    outer loop
      vertex -9.39347 -3.05212 -1.56434
      vertex -7.99057 -5.80549 -1.56434
      vertex -9.39347 -3.05212 1.56434
    endloop
  endfacet
  facet normal -0.891008 -0.453987 0
    outer loop
      vertex -7.99057 -5.80549 -1.56434
      vertex -7.99057 -5.80549 1.56434
      vertex -9.39347 -3.05212 1.56434
    endloop
  endfacet
  facet normal -0.707107 -0.707107 0
    outer loop
      vertex -7.99057 -5.80549 -1.56434
      vertex -5.80549 -7.99057 -1.56434
      vertex -7.99057 -5.80549 1.56434
    endloop
  endfacet
  facet normal -0.707107 -0.707107 0
    outer loop
      vertex -5.80549 -7.99057 -1.56434
      vertex -5.80549 -7.99057 1.56434
      vertex -7.99057 -5.80549 1.56434
    endloop
  endfacet
  facet normal -0.453987 -0.891008 0
    outer loop
      vertex -5.80549 -7.99057 -1.56434
      vertex -3.05212 -9.39347 -1.56434
      vertex -5.80549 -7.99057 1.56434
    endloop
  endfacet
  facet normal -0.453987 -0.891008 0
    outer loop
      vertex -3.05212 -9.39347 -1.56434
      vertex -3.05212 -9.39347 1.56434
      vertex -5.80549 -7.99057 1.56434
    endloop
  endfacet
  facet normal -0.156435 -0.987688 0
    outer loop
      vertex -3.05212 -9.39347 -1.56434
      vertex -0 -9.87688 -1.56434
      vertex -3.05212 -9.39347 1.56434
    endloop
  endfacet
  facet normal -0.156435 -0.987688 0
    outer loop
      vertex -0 -9.87688 -1.56434
      vertex -0 -9.87688 1.56434
      vertex -3.05212 -9.39347 1.56434
    endloop
  endfacet
  facet normal 0.156435 -0.987688 0
    outer loop
      vertex -0 -9.87688 -1.56434
      vertex 3.05212 -9.39347 -1.56434
      vertex -0 -9.87688 1.56434
    endloop
  endfacet
  facet normal 0.156435 -0.987688 0
    outer loop
      vertex 3.05212 -9.39347 -1.56434
      vertex 3.05212 -9.39347 1.56434
      vertex -0 -9.87688 1.56434
    endloop
  endfacet
  facet normal 0.453987 -0.891008 0
    outer loop
      vertex 3.05212 -9.39347 -1.56434
      vertex 5.80549 -7.99057 -1.56434
      vertex 3.05212 -9.39347 1.56434
    endloop
  endfacet
  facet normal 0.453987 -0.891008 0
    outer loop
      vertex 5.80549 -7.99057 -1.56434
      vertex 5.80549 -7.99057 1.56434
      vertex 3.05212 -9.39347 1.56434
    endloop
  endfacet
  facet normal 0.707107 -0.707107 0
    outer loop
      vertex 5.80549 -7.99057 -1.56434
      vertex 7.99057 -5.80549 -1.56434
      vertex 5.80549 -7.99057 1.56434
    endloop
  endfacet
  facet normal 0.707107 -0.707107 0
    outer loop
      vertex 7.99057 -5.80549 -1.56434
      vertex 7.99057 -5.80549 1.56434
      vertex 5.80549 -7.99057 1.56434
    endloop
  endfacet
  facet normal 0.891008 -0.453987 0
    outer loop
      vertex 7.99057 -5.80549 -1.56434
      vertex 9.39347 -3.05212 -1.56434
      vertex 7.99057 -5.80549 1.56434
    endloop
  endfacet
  facet normal 0.891008 -0.453987 0
    outer loop
      vertex 9.39347 -3.05212 -1.56434
      vertex 9.39347 -3.05212 1.56434
      vertex 7.99057 -5.80549 1.56434
    endloop
  endfacet
  facet normal 0.987688 -0.156435 0
    outer loop
      vertex 9.39347 -3.05212 -1.56434
      vertex 9.87688 0 -1.56434
      vertex 9.39347 -3.05212 1.56434
    endloop
  endfacet
  facet normal 0.987688 -0.156435 0
    outer loop
      vertex 9.87688 0 -1.56434
      vertex 9.87688 0 1.56434
      vertex 9.39347 -3.05212 1.56434
    endloop
  endfacet
  facet normal 0.940448 0.148953 -0.305566
    outer loop
      vertex 8.91007 0 -4.53991
      vertex 8.47398 2.75336 -4.53991
      vertex 9.87688 0 -1.56434
    endloop
  endfacet
  facet normal 0.940448 0.148953 -0.305566
    outer loop
      vertex 8.47398 2.75336 -4.53991
      vertex 9.39347 3.05212 -1.56434
      vertex 9.87688 0 -1.56434
    endloop
  endfacet
  facet normal 0.84839 0.432278 -0.305566
    outer loop
      vertex 8.47398 2.75336 -4.53991
      vertex 7.20839 5.23721 -4.53991
      vertex 9.39347 3.05212 -1.56434
    endloop
  endfacet
  facet normal 0.848391 0.432273 -0.30557
    outer loop
      vertex 7.20839 5.23721 -4.53991
      vertex 7.99057 5.80549 -1.56434
      vertex 9.39347 3.05212 -1.56434
    endloop
  endfacet
  facet normal 0.673286 0.673286 -0.30557
    outer loop
      vertex 7.20839 5.23721 -4.53991
      vertex 5.23721 7.20839 -4.53991
      vertex 7.99057 5.80549 -1.56434
    endloop
  endfacet
  facet normal 0.673286 0.673286 -0.30557
    outer loop
      vertex 5.23721 7.20839 -4.53991
      vertex 5.80549 7.99057 -1.56434
      vertex 7.99057 5.80549 -1.56434
    endloop
  endfacet
  facet normal 0.432277 0.848388 -0.305571
    outer loop
      vertex 5.23721 7.20839 -4.53991
      vertex 2.75336 8.47398 -4.53991
      vertex 5.80549 7.99057 -1.56434
    endloop
  endfacet
  facet normal 0.432274 0.848392 -0.305566
    outer loop
      vertex 2.75336 8.47398 -4.53991
      vertex 3.05212 9.39347 -1.56434
      vertex 5.80549 7.99057 -1.56434
    endloop
  endfacet
  facet normal 0.148953 0.940448 -0.305566
    outer loop
      vertex 2.75336 8.47398 -4.53991
      vertex 0 8.91007 -4.53991
      vertex 3.05212 9.39347 -1.56434
    endloop
  endfacet
  facet normal 0.148953 0.940448 -0.305566
    outer loop
      vertex 0 8.91007 -4.53991
      vertex 0 9.87688 -1.56434
      vertex 3.05212 9.39347 -1.56434
    endloop
  endfacet
  facet normal -0.148953 0.940448 -0.305566
    outer loop
      vertex 0 8.91007 -4.53991
      vertex -2.75336 8.47398 -4.53991
      vertex 0 9.87688 -1.56434
    endloop
  endfacet
  facet normal -0.148953 0.940448 -0.305566
    outer loop
      vertex -2.75336 8.47398 -4.53991
      vertex -3.05212 9.39347 -1.56434
      vertex 0 9.87688 -1.56434
    endloop
  endfacet
  facet normal -0.432278 0.84839 -0.305566
    outer loop
      vertex -2.75336 8.47398 -4.53991
      vertex -5.23721 7.20839 -4.53991
      vertex -3.05212 9.39347 -1.56434
    endloop
  endfacet
  facet normal -0.432273 0.848391 -0.30557
    outer loop
      vertex -5.23721 7.20839 -4.53991
      vertex -5.80549 7.99057 -1.56434
      vertex -3.05212 9.39347 -1.56434
    endloop
  endfacet
  facet normal -0.673286 0.673286 -0.30557
    outer loop
      vertex -5.23721 7.20839 -4.53991
      vertex -7.20839 5.23721 -4.53991
      vertex -5.80549 7.99057 -1.56434
    endloop
  endfacet
  facet normal -0.673286 0.673286 -0.30557
    outer loop
      vertex -7.20839 5.23721 -4.53991
      vertex -7.99057 5.80549 -1.56434
      vertex -5.80549 7.99057 -1.56434
    endloop
  endfacet
  facet normal -0.848388 0.432277 -0.305571
    outer loop
      vertex -7.20839 5.23721 -4.53991
      vertex -8.47398 2.75336 -4.53991
      vertex -7.99057 5.80549 -1.56434
    endloop
  endfacet
  facet normal -0.848392 0.432274 -0.305566
    outer loop
      vertex -8.47398 2.75336 -4.53991
      vertex -9.39347 3.05212 -1.56434
      vertex -7.99057 5.80549 -1.56434
    endloop
  endfacet
  facet normal -0.940448 0.148953 -0.305566
    outer loop
      vertex -8.47398 2.75336 -4.53991
      vertex -8.91007 -0 -4.53991
      vertex -9.39347 3.05212 -1.56434
    endloop
  endfacet
  facet normal -0.940448 0.148953 -0.305566
    outer loop
      vertex -8.91007 -0 -4.53991
      vertex -9.87688 -0 -1.56434
      vertex -9.39347 3.05212 -1.56434
    endloop
  endfacet
  facet normal -0.940448 -0.148953 -0.305566
    outer loop
      vertex -8.91007 -0 -4.53991
      vertex -8.47398 -2.75336 -4.53991
      vertex -9.87688 -0 -1.56434
    endloop
  endfacet
  facet normal -0.940448 -0.148953 -0.305566
    outer loop
      vertex -8.47398 -2.75336 -4.53991
      vertex -9.39347 -3.05212 -1.56434
      vertex -9.87688 -0 -1.56434
    endloop
  endfacet
  facet normal -0.84839 -0.432278 -0.305566
    outer loop
      vertex -8.47398 -2.75336 -4.53991
      vertex -7.20839 -5.23721 -4.53991
      vertex -9.39347 -3.05212 -1.56434
    endloop
  endfacet
  facet normal -0.848391 -0.432273 -0.30557
    outer loop
      vertex -7.20839 -5.23721 -4.53991
      vertex -7.99057 -5.80549 -1.56434
      vertex -9.39347 -3.05212 -1.56434
    endloop
  endfacet
  facet normal -0.673286 -0.673286 -0.30557
    outer loop
      vertex -7.20839 -5.23721 -4.53991
      vertex -5.23721 -7.20839 -4.53991
      vertex -7.99057 -5.80549 -1.56434
    endloop
  endfacet
  facet normal -0.673286 -0.673286 -0.30557
    outer loop
      vertex -5.23721 -7.20839 -4.53991
      vertex -5.80549 -7.99057 -1.56434
      vertex -7.99057 -5.80549 -1.56434
    endloop
  endfacet
  facet normal -0.432277 -0.848388 -0.305571
    outer loop
      vertex -5.23721 -7.20839 -4.53991
      vertex -2.75336 -8.47398 -4.53991
      vertex -5.80549 -7.99057 -1.56434
    endloop
  endfacet
  facet normal -0.432274 -0.848392 -0.305566
    outer loop
      vertex -2.75336 -8.47398 -4.53991
      vertex -3.05212 -9.39347 -1.56434
      vertex -5.80549 -7.99057 -1.56434
    endloop
  endfacet
  facet normal -0.148953 -0.940448 -0.305566
    outer loop
      vertex -2.75336 -8.47398 -4.53991
      vertex -0 -8.91007 -4.53991
      vertex -3.05212 -9.39347 -1.56434
    endloop
  endfacet
  facet normal -0.148953 -0.940448 -0.305566
    outer loop
      vertex -0 -8.91007 -4.53991
      vertex -0 -9.87688 -1.56434
      vertex -3.05212 -9.39347 -1.56434
    endloop
  endfacet
  facet normal 0.148953 -0.940448 -0.305566
    outer loop
      vertex -0 -8.91007 -4.53991
      vertex 2.75336 -8.47398 -4.53991
      vertex -0 -9.87688 -1.56434
    endloop
  endfacet
  facet normal 0.148953 -0.940448 -0.305566
    outer loop
      vertex 2.75336 -8.47398 -4.53991
      vertex 3.05212 -9.39347 -1.56434
      vertex -0 -9.87688 -1.56434
    endloop
  endfacet
  facet normal 0.432278 -0.84839 -0.305566
    outer loop
      vertex 2.75336 -8.47398 -4.53991
      vertex 5.23721 -7.20839 -4.53991
      vertex 3.05212 -9.39347 -1.56434
    endloop
  endfacet
  facet normal 0.432273 -0.848391 -0.30557
    outer loop
      vertex 5.23721 -7.20839 -4.53991
      vertex 5.80549 -7.99057 -1.56434
      vertex 3.05212 -9.39347 -1.56434
    endloop
  endfacet
  facet normal 0.673286 -0.673286 -0.30557
    outer loop
      vertex 5.23721 -7.20839 -4.53991
      vertex 7.20839 -5.23721 -4.53991
      vertex 5.80549 -7.99057 -1.56434
    endloop
  endfacet
  facet normal 0.673286 -0.673286 -0.30557
    outer loop
      vertex 7.20839 -5.23721 -4.53991
      vertex 7.99057 -5.80549 -1.56434
      vertex 5.80549 -7.99057 -1.56434
    endloop
  endfacet
  facet normal 0.848388 -0.432277 -0.305571
    outer loop
      vertex 7.20839 -5.23721 -4.53991
      vertex 8.47398 -2.75336 -4.53991
      vertex 7.99057 -5.80549 -1.56434
    endloop
  endfacet
  facet normal 0.848392 -0.432274 -0.305566
    outer loop
      vertex 8.47398 -2.75336 -4.53991
      vertex 9.39347 -3.05212 -1.56434
      vertex 7.99057 -5.80549 -1.56434
    endloop
  endfacet
  facet normal 0.940448 -0.148953 -0.305566
    outer loop
      vertex 8.47398 -2.75336 -4.53991
      vertex 8.91007 0 -4.53991
      vertex 9.39347 -3.05212 -1.56434
    endloop
  endfacet
  facet normal 0.940448 -0.148953 -0.305566
    outer loop
      vertex 8.91007 0 -4.53991
      vertex 9.87688 0 -1.56434
      vertex 9.39347 -3.05212 -1.56434
    endloop
  endfacet
  facet normal 0.802456 0.127095 -0.58302
    outer loop
      vertex 7.07107 0 -7.07107
      vertex 6.72499 2.18508 -7.07107
      vertex 8.91007 0 -4.53991
    endloop
  endfacet
  facet normal 0.802456 0.127097 -0.583019
    outer loop
      vertex 6.72499 2.18508 -7.07107
      vertex 8.47398 2.75336 -4.53991
      vertex 8.91007 0 -4.53991
    endloop
  endfacet
  facet normal 0.723905 0.368851 -0.583019
    outer loop
      vertex 6.72499 2.18508 -7.07107
      vertex 5.72061 4.15627 -7.07107
      vertex 8.47398 2.75336 -4.53991
    endloop
  endfacet
  facet normal 0.723905 0.36885 -0.583019
    outer loop
      vertex 5.72061 4.15627 -7.07107
      vertex 7.20839 5.23721 -4.53991
      vertex 8.47398 2.75336 -4.53991
    endloop
  endfacet
  facet normal 0.574495 0.574495 -0.58302
    outer loop
      vertex 5.72061 4.15627 -7.07107
      vertex 4.15627 5.72061 -7.07107
      vertex 7.20839 5.23721 -4.53991
    endloop
  endfacet
  facet normal 0.574495 0.574495 -0.58302
    outer loop
      vertex 4.15627 5.72061 -7.07107
      vertex 5.23721 7.20839 -4.53991
      vertex 7.20839 5.23721 -4.53991
    endloop
  endfacet
  facet normal 0.368851 0.723904 -0.58302
    outer loop
      vertex 4.15627 5.72061 -7.07107
      vertex 2.18508 6.72499 -7.07107
      vertex 5.23721 7.20839 -4.53991
    endloop
  endfacet
  facet normal 0.36885 0.723905 -0.583019
    outer loop
      vertex 2.18508 6.72499 -7.07107
      vertex 2.75336 8.47398 -4.53991
      vertex 5.23721 7.20839 -4.53991
    endloop
  endfacet
  facet normal 0.127096 0.802456 -0.583019
    outer loop
      vertex 2.18508 6.72499 -7.07107
      vertex 0 7.07107 -7.07107
      vertex 2.75336 8.47398 -4.53991
    endloop
  endfacet
  facet normal 0.127097 0.802455 -0.583019
    outer loop
      vertex 0 7.07107 -7.07107
      vertex 0 8.91007 -4.53991
      vertex 2.75336 8.47398 -4.53991
    endloop
  endfacet
  facet normal -0.127095 0.802456 -0.58302
    outer loop
      vertex 0 7.07107 -7.07107
      vertex -2.18508 6.72499 -7.07107
      vertex 0 8.91007 -4.53991
    endloop
  endfacet
  facet normal -0.127097 0.802456 -0.583019
    outer loop
      vertex -2.18508 6.72499 -7.07107
      vertex -2.75336 8.47398 -4.53991
      vertex 0 8.91007 -4.53991
    endloop
  endfacet
  facet normal -0.368851 0.723905 -0.583019
    outer loop
      vertex -2.18508 6.72499 -7.07107
      vertex -4.15627 5.72061 -7.07107
      vertex -2.75336 8.47398 -4.53991
    endloop
  endfacet
  facet normal -0.36885 0.723905 -0.583019
    outer loop
      vertex -4.15627 5.72061 -7.07107
      vertex -5.23721 7.20839 -4.53991
      vertex -2.75336 8.47398 -4.53991
    endloop
  endfacet
  facet normal -0.574495 0.574495 -0.58302
    outer loop
      vertex -4.15627 5.72061 -7.07107
      vertex -5.72061 4.15627 -7.07107
      vertex -5.23721 7.20839 -4.53991
    endloop
  endfacet
  facet normal -0.574495 0.574495 -0.58302
    outer loop
      vertex -5.72061 4.15627 -7.07107
      vertex -7.20839 5.23721 -4.53991
      vertex -5.23721 7.20839 -4.53991
    endloop
  endfacet
  facet normal -0.723904 0.368851 -0.58302
    outer loop
      vertex -5.72061 4.15627 -7.07107
      vertex -6.72499 2.18508 -7.07107
      vertex -7.20839 5.23721 -4.53991
    endloop
  endfacet
  facet normal -0.723905 0.36885 -0.583019
    outer loop
      vertex -6.72499 2.18508 -7.07107
      vertex -8.47398 2.75336 -4.53991
      vertex -7.20839 5.23721 -4.53991
    endloop
  endfacet
  facet normal -0.802456 0.127096 -0.583019
    outer loop
      vertex -6.72499 2.18508 -7.07107
      vertex -7.07107 -0 -7.07107
      vertex -8.47398 2.75336 -4.53991
    endloop
  endfacet
  facet normal -0.802455 0.127097 -0.583019
    outer loop
      vertex -7.07107 -0 -7.07107
      vertex -8.91007 -0 -4.53991
      vertex -8.47398 2.75336 -4.53991
    endloop
  endfacet
  facet normal -0.802456 -0.127095 -0.58302
    outer loop
      vertex -7.07107 -0 -7.07107
      vertex -6.72499 -2.18508 -7.07107
      vertex -8.91007 -0 -4.53991
    endloop
  endfacet
  facet normal -0.802456 -0.127097 -0.583019
    outer loop
      vertex -6.72499 -2.18508 -7.07107
      vertex -8.47398 -2.75336 -4.53991
      vertex -8.91007 -0 -4.53991
    endloop
  endfacet
  facet normal -0.723905 -0.368851 -0.583019
    outer loop
      vertex -6.72499 -2.18508 -7.07107
      vertex -5.72061 -4.15627 -7.07107
      vertex -8.47398 -2.75336 -4.53991
    endloop
  endfacet
  facet normal -0.723905 -0.36885 -0.583019
    outer loop
      vertex -5.72061 -4.15627 -7.07107
      vertex -7.20839 -5.23721 -4.53991
      vertex -8.47398 -2.75336 -4.53991
    endloop
  endfacet
  facet normal -0.574495 -0.574495 -0.58302
    outer loop
      vertex -5.72061 -4.15627 -7.07107
      vertex -4.15627 -5.72061 -7.07107
      vertex -7.20839 -5.23721 -4.53991
    endloop
  endfacet
  facet normal -0.574495 -0.574495 -0.58302
    outer loop
      vertex -4.15627 -5.72061 -7.07107
      vertex -5.23721 -7.20839 -4.53991
      vertex -7.20839 -5.23721 -4.53991
    endloop
  endfacet
  facet normal -0.368851 -0.723904 -0.58302
    outer loop
      vertex -4.15627 -5.72061 -7.07107
      vertex -2.18508 -6.72499 -7.07107
      vertex -5.23721 -7.20839 -4.53991
    endloop
  endfacet
  facet normal -0.36885 -0.723905 -0.583019
    outer loop
      vertex -2.18508 -6.72499 -7.07107
      vertex -2.75336 -8.47398 -4.53991
      vertex -5.23721 -7.20839 -4.53991
    endloop
  endfacet
  facet normal -0.127096 -0.802456 -0.583019
    outer loop
      vertex -2.18508 -6.72499 -7.07107
      vertex -0 -7.07107 -7.07107
      vertex -2.75336 -8.47398 -4.53991
    endloop
  endfacet
  facet normal -0.127097 -0.802455 -0.583019
    outer loop
      vertex -0 -7.07107 -7.07107
      vertex -0 -8.91007 -4.53991
      vertex -2.75336 -8.47398 -4.53991
    endloop
  endfacet
  facet normal 0.127095 -0.802456 -0.58302
    outer loop
      vertex -0 -7.07107 -7.07107
      vertex 2.18508 -6.72499 -7.07107
      vertex -0 -8.91007 -4.53991
    endloop
  endfacet
  facet normal 0.127097 -0.802456 -0.583019
    outer loop
      vertex 2.18508 -6.72499 -7.07107
      vertex 2.75336 -8.47398 -4.53991
      vertex -0 -8.91007 -4.53991
    endloop
  endfacet
  facet normal 0.368851 -0.723905 -0.583019
    outer loop
      vertex 2.18508 -6.72499 -7.07107
      vertex 4.15627 -5.72061 -7.07107
      vertex 2.75336 -8.47398 -4.53991
    endloop
  endfacet
  facet normal 0.36885 -0.723905 -0.583019
    outer loop
      vertex 4.15627 -5.72061 -7.07107
      vertex 5.23721 -7.20839 -4.53991
      vertex 2.75336 -8.47398 -4.53991
    endloop
  endfacet
  facet normal 0.574495 -0.574495 -0.58302
    outer loop
      vertex 4.15627 -5.72061 -7.07107
      vertex 5.72061 -4.15627 -7.07107
      vertex 5.23721 -7.20839 -4.53991
    endloop
  endfacet
  facet normal 0.574495 -0.574495 -0.58302
    outer loop
      vertex 5.72061 -4.15627 -7.07107
      vertex 7.20839 -5.23721 -4.53991
      vertex 5.23721 -7.20839 -4.53991
    endloop
  endfacet
  facet normal 0.723904 -0.368851 -0.58302
    outer loop
      vertex 5.72061 -4.15627 -7.07107
      vertex 6.72499 -2.18508 -7.07107
      vertex 7.20839 -5.23721 -4.53991
    endloop
  endfacet
  facet normal 0.723905 -0.36885 -0.583019
    outer loop
      vertex 6.72499 -2.18508 -7.07107
      vertex 8.47398 -2.75336 -4.53991
      vertex 7.20839 -5.23721 -4.53991
    endloop
  endfacet
  facet normal 0.802456 -0.127096 -0.583019
    outer loop
      vertex 6.72499 -2.18508 -7.07107
      vertex 7.07107 0 -7.07107
      vertex 8.47398 -2.75336 -4.53991
    endloop
  endfacet
  facet normal 0.802455 -0.127097 -0.583019
    outer loop
      vertex 7.07107 0 -7.07107
      vertex 8.91007 0 -4.53991
      vertex 8.47398 -2.75336 -4.53991
    endloop
  endfacet
  facet normal 0.585255 0.0926957 -0.805533
    outer loop
      vertex 4.53991 0 -8.91007
      vertex 4.31771 1.40291 -8.91007
      vertex 7.07107 0 -7.07107
    endloop
  endfacet
  facet normal 0.585255 0.0926946 -0.805533
    outer loop
      vertex 4.31771 1.40291 -8.91007
      vertex 6.72499 2.18508 -7.07107
      vertex 7.07107 0 -7.07107
    endloop
  endfacet
  facet normal 0.527966 0.269014 -0.805533
    outer loop
      vertex 4.31771 1.40291 -8.91007
      vertex 3.67286 2.66849 -8.91007
      vertex 6.72499 2.18508 -7.07107
    endloop
  endfacet
  facet normal 0.527966 0.269014 -0.805533
    outer loop
      vertex 3.67286 2.66849 -8.91007
      vertex 5.72061 4.15627 -7.07107
      vertex 6.72499 2.18508 -7.07107
    endloop
  endfacet
  facet normal 0.418997 0.418997 -0.805533
    outer loop
      vertex 3.67286 2.66849 -8.91007
      vertex 2.66849 3.67286 -8.91007
      vertex 5.72061 4.15627 -7.07107
    endloop
  endfacet
  facet normal 0.418997 0.418997 -0.805533
    outer loop
      vertex 2.66849 3.67286 -8.91007
      vertex 4.15627 5.72061 -7.07107
      vertex 5.72061 4.15627 -7.07107
    endloop
  endfacet
  facet normal 0.269014 0.527966 -0.805533
    outer loop
      vertex 2.66849 3.67286 -8.91007
      vertex 1.40291 4.31771 -8.91007
      vertex 4.15627 5.72061 -7.07107
    endloop
  endfacet
  facet normal 0.269014 0.527966 -0.805533
    outer loop
      vertex 1.40291 4.31771 -8.91007
      vertex 2.18508 6.72499 -7.07107
      vertex 4.15627 5.72061 -7.07107
    endloop
  endfacet
  facet normal 0.0926956 0.585255 -0.805534
    outer loop
      vertex 1.40291 4.31771 -8.91007
      vertex 0 4.53991 -8.91007
      vertex 2.18508 6.72499 -7.07107
    endloop
  endfacet
  facet normal 0.0926947 0.585256 -0.805533
    outer loop
      vertex 0 4.53991 -8.91007
      vertex 0 7.07107 -7.07107
      vertex 2.18508 6.72499 -7.07107
    endloop
  endfacet
  facet normal -0.0926957 0.585255 -0.805533
    outer loop
      vertex 0 4.53991 -8.91007
      vertex -1.40291 4.31771 -8.91007
      vertex 0 7.07107 -7.07107
    endloop
  endfacet
  facet normal -0.0926946 0.585255 -0.805533
    outer loop
      vertex -1.40291 4.31771 -8.91007
      vertex -2.18508 6.72499 -7.07107
      vertex 0 7.07107 -7.07107
    endloop
  endfacet
  facet normal -0.269014 0.527966 -0.805533
    outer loop
      vertex -1.40291 4.31771 -8.91007
      vertex -2.66849 3.67286 -8.91007
      vertex -2.18508 6.72499 -7.07107
    endloop
  endfacet
  facet normal -0.269014 0.527966 -0.805533
    outer loop
      vertex -2.66849 3.67286 -8.91007
      vertex -4.15627 5.72061 -7.07107
      vertex -2.18508 6.72499 -7.07107
    endloop
  endfacet
  facet normal -0.418997 0.418997 -0.805533
    outer loop
      vertex -2.66849 3.67286 -8.91007
      vertex -3.67286 2.66849 -8.91007
      vertex -4.15627 5.72061 -7.07107
    endloop
  endfacet
  facet normal -0.418997 0.418997 -0.805533
    outer loop
      vertex -3.67286 2.66849 -8.91007
      vertex -5.72061 4.15627 -7.07107
      vertex -4.15627 5.72061 -7.07107
    endloop
  endfacet
  facet normal -0.527966 0.269014 -0.805533
    outer loop
      vertex -3.67286 2.66849 -8.91007
      vertex -4.31771 1.40291 -8.91007
      vertex -5.72061 4.15627 -7.07107
    endloop
  endfacet
  facet normal -0.527966 0.269014 -0.805533
    outer loop
      vertex -4.31771 1.40291 -8.91007
      vertex -6.72499 2.18508 -7.07107
      vertex -5.72061 4.15627 -7.07107
    endloop
  endfacet
  facet normal -0.585255 0.0926956 -0.805534
    outer loop
      vertex -4.31771 1.40291 -8.91007
      vertex -4.53991 -0 -8.91007
      vertex -6.72499 2.18508 -7.07107
    endloop
  endfacet
  facet normal -0.585256 0.0926947 -0.805533
    outer loop
      vertex -4.53991 -0 -8.91007
      vertex -7.07107 -0 -7.07107
      vertex -6.72499 2.18508 -7.07107
    endloop
  endfacet
  facet normal -0.585255 -0.0926957 -0.805533
    outer loop
      vertex -4.53991 -0 -8.91007
      vertex -4.31771 -1.40291 -8.91007
      vertex -7.07107 -0 -7.07107
    endloop
  endfacet
  facet normal -0.585255 -0.0926946 -0.805533
    outer loop
      vertex -4.31771 -1.40291 -8.91007
      vertex -6.72499 -2.18508 -7.07107
      vertex -7.07107 -0 -7.07107
    endloop
  endfacet
  facet normal -0.527966 -0.269014 -0.805533
    outer loop
      vertex -4.31771 -1.40291 -8.91007
      vertex -3.67286 -2.66849 -8.91007
      vertex -6.72499 -2.18508 -7.07107
    endloop
  endfacet
  facet normal -0.527966 -0.269014 -0.805533
    outer loop
      vertex -3.67286 -2.66849 -8.91007
      vertex -5.72061 -4.15627 -7.07107
      vertex -6.72499 -2.18508 -7.07107
    endloop
  endfacet
  facet normal -0.418997 -0.418997 -0.805533
    outer loop
      vertex -3.67286 -2.66849 -8.91007
      vertex -2.66849 -3.67286 -8.91007
      vertex -5.72061 -4.15627 -7.07107
    endloop
  endfacet
  facet normal -0.418997 -0.418997 -0.805533
    outer loop
      vertex -2.66849 -3.67286 -8.91007
      vertex -4.15627 -5.72061 -7.07107
      vertex -5.72061 -4.15627 -7.07107
    endloop
  endfacet
  facet normal -0.269014 -0.527966 -0.805533
    outer loop
      vertex -2.66849 -3.67286 -8.91007
      vertex -1.40291 -4.31771 -8.91007
      vertex -4.15627 -5.72061 -7.07107
    endloop
  endfacet
  facet normal -0.269014 -0.527966 -0.805533
    outer loop
      vertex -1.40291 -4.31771 -8.91007
      vertex -2.18508 -6.72499 -7.07107
      vertex -4.15627 -5.72061 -7.07107
    endloop
  endfacet
  facet normal -0.0926956 -0.585255 -0.805534
    outer loop
      vertex -1.40291 -4.31771 -8.91007
      vertex -0 -4.53991 -8.91007
      vertex -2.18508 -6.72499 -7.07107
    endloop
  endfacet
  facet normal -0.0926947 -0.585256 -0.805533
    outer loop
      vertex -0 -4.53991 -8.91007
      vertex -0 -7.07107 -7.07107
      vertex -2.18508 -6.72499 -7.07107
    endloop
  endfacet
  facet normal 0.0926957 -0.585255 -0.805533
    outer loop
      vertex -0 -4.53991 -8.91007
      vertex 1.40291 -4.31771 -8.91007
      vertex -0 -7.07107 -7.07107
    endloop
  endfacet
  facet normal 0.0926946 -0.585255 -0.805533
    outer loop
      vertex 1.40291 -4.31771 -8.91007
      vertex 2.18508 -6.72499 -7.07107
      vertex -0 -7.07107 -7.07107
    endloop
  endfacet
  facet normal 0.269014 -0.527966 -0.805533
    outer loop
      vertex 1.40291 -4.31771 -8.91007
      vertex 2.66849 -3.67286 -8.91007
      vertex 2.18508 -6.72499 -7.07107
    endloop
  endfacet
  facet normal 0.269014 -0.527966 -0.805533
    outer loop
      vertex 2.66849 -3.67286 -8.91007
      vertex 4.15627 -5.72061 -7.07107
      vertex 2.18508 -6.72499 -7.07107
    endloop
  endfacet
  facet normal 0.418997 -0.418997 -0.805533
    outer loop
      vertex 2.66849 -3.67286 -8.91007
      vertex 3.67286 -2.66849 -8.91007
      vertex 4.15627 -5.72061 -7.07107
    endloop
  endfacet
  facet normal 0.418997 -0.418997 -0.805533
    outer loop
      vertex 3.67286 -2.66849 -8.91007
      vertex 5.72061 -4.15627 -7.07107
      vertex 4.15627 -5.72061 -7.07107
    endloop
  endfacet
  facet normal 0.527966 -0.269014 -0.805533
    outer loop
      vertex 3.67286 -2.66849 -8.91007
      vertex 4.31771 -1.40291 -8.91007
      vertex 5.72061 -4.15627 -7.07107
    endloop
  endfacet
  facet normal 0.527966 -0.269014 -0.805533
    outer loop
      vertex 4.31771 -1.40291 -8.91007
      vertex 6.72499 -2.18508 -7.07107
      vertex 5.72061 -4.15627 -7.07107
    endloop
  endfacet
  facet normal 0.585255 -0.0926956 -0.805534
    outer loop
      vertex 4.31771 -1.40291 -8.91007
      vertex 4.53991 0 -8.91007
      vertex 6.72499 -2.18508 -7.07107
    endloop
  endfacet
  facet normal 0.585256 -0.0926947 -0.805533
    outer loop
      vertex 4.53991 0 -8.91007
      vertex 7.07107 0 -7.07107
      vertex 6.72499 -2.18508 -7.07107
    endloop
  endfacet
  facet normal 0.308644 0.0488816 -0.949921
    outer loop
      vertex 1.56434 0 -9.87688
      vertex 1.48778 0.483409 -9.87688
      vertex 4.53991 0 -8.91007
    endloop
  endfacet
  facet normal 0.308645 0.0488847 -0.94992
    outer loop
      vertex 1.48778 0.483409 -9.87688
      vertex 4.31771 1.40291 -8.91007
      vertex 4.53991 0 -8.91007
    endloop
  endfacet
  facet normal 0.278432 0.141869 -0.94992
    outer loop
      vertex 1.48778 0.483409 -9.87688
      vertex 1.26558 0.919499 -9.87688
      vertex 4.31771 1.40291 -8.91007
    endloop
  endfacet
  facet normal 0.278432 0.141869 -0.94992
    outer loop
      vertex 1.26558 0.919499 -9.87688
      vertex 3.67286 2.66849 -8.91007
      vertex 4.31771 1.40291 -8.91007
    endloop
  endfacet
  facet normal 0.220965 0.220965 -0.94992
    outer loop
      vertex 1.26558 0.919499 -9.87688
      vertex 0.919499 1.26558 -9.87688
      vertex 3.67286 2.66849 -8.91007
    endloop
  endfacet
  facet normal 0.220965 0.220965 -0.94992
    outer loop
      vertex 0.919499 1.26558 -9.87688
      vertex 2.66849 3.67286 -8.91007
      vertex 3.67286 2.66849 -8.91007
    endloop
  endfacet
  facet normal 0.141869 0.278432 -0.94992
    outer loop
      vertex 0.919499 1.26558 -9.87688
      vertex 0.483409 1.48778 -9.87688
      vertex 2.66849 3.67286 -8.91007
    endloop
  endfacet
  facet normal 0.141869 0.278432 -0.94992
    outer loop
      vertex 0.483409 1.48778 -9.87688
      vertex 1.40291 4.31771 -8.91007
      vertex 2.66849 3.67286 -8.91007
    endloop
  endfacet
  facet normal 0.0488818 0.308646 -0.94992
    outer loop
      vertex 0.483409 1.48778 -9.87688
      vertex 0 1.56434 -9.87688
      vertex 1.40291 4.31771 -8.91007
    endloop
  endfacet
  facet normal 0.0488846 0.308644 -0.949921
    outer loop
      vertex 0 1.56434 -9.87688
      vertex 0 4.53991 -8.91007
      vertex 1.40291 4.31771 -8.91007
    endloop
  endfacet
  facet normal -0.0488816 0.308644 -0.949921
    outer loop
      vertex 0 1.56434 -9.87688
      vertex -0.483409 1.48778 -9.87688
      vertex 0 4.53991 -8.91007
    endloop
  endfacet
  facet normal -0.0488847 0.308645 -0.94992
    outer loop
      vertex -0.483409 1.48778 -9.87688
      vertex -1.40291 4.31771 -8.91007
      vertex 0 4.53991 -8.91007
    endloop
  endfacet
  facet normal -0.141869 0.278432 -0.94992
    outer loop
      vertex -0.483409 1.48778 -9.87688
      vertex -0.919499 1.26558 -9.87688
      vertex -1.40291 4.31771 -8.91007
    endloop
  endfacet
  facet normal -0.141869 0.278432 -0.94992
    outer loop
      vertex -0.919499 1.26558 -9.87688
      vertex -2.66849 3.67286 -8.91007
      vertex -1.40291 4.31771 -8.91007
    endloop
  endfacet
  facet normal -0.220965 0.220965 -0.94992
    outer loop
      vertex -0.919499 1.26558 -9.87688
      vertex -1.26558 0.919499 -9.87688
      vertex -2.66849 3.67286 -8.91007
    endloop
  endfacet
  facet normal -0.220965 0.220965 -0.94992
    outer loop
      vertex -1.26558 0.919499 -9.87688
      vertex -3.67286 2.66849 -8.91007
      vertex -2.66849 3.67286 -8.91007
    endloop
  endfacet
  facet normal -0.278432 0.141869 -0.94992
    outer loop
      vertex -1.26558 0.919499 -9.87688
      vertex -1.48778 0.483409 -9.87688
      vertex -3.67286 2.66849 -8.91007
    endloop
  endfacet
  facet normal -0.278432 0.141869 -0.94992
    outer loop
      vertex -1.48778 0.483409 -9.87688
      vertex -4.31771 1.40291 -8.91007
      vertex -3.67286 2.66849 -8.91007
    endloop
  endfacet
  facet normal -0.308646 0.0488818 -0.94992
    outer loop
      vertex -1.48778 0.483409 -9.87688
      vertex -1.56434 -0 -9.87688
      vertex -4.31771 1.40291 -8.91007
    endloop
  endfacet
  facet normal -0.308644 0.0488846 -0.949921
    outer loop
      vertex -1.56434 -0 -9.87688
      vertex -4.53991 -0 -8.91007
      vertex -4.31771 1.40291 -8.91007
    endloop
  endfacet
  facet normal -0.308644 -0.0488816 -0.949921
    outer loop
      vertex -1.56434 -0 -9.87688
      vertex -1.48778 -0.483409 -9.87688
      vertex -4.53991 -0 -8.91007
    endloop
  endfacet
  facet normal -0.308645 -0.0488847 -0.94992
    outer loop
      vertex -1.48778 -0.483409 -9.87688
      vertex -4.31771 -1.40291 -8.91007
      vertex -4.53991 -0 -8.91007
    endloop
  endfacet
  facet normal -0.278432 -0.141869 -0.94992
    outer loop
      vertex -1.48778 -0.483409 -9.87688
      vertex -1.26558 -0.919499 -9.87688
      vertex -4.31771 -1.40291 -8.91007
    endloop
  endfacet
  facet normal -0.278432 -0.141869 -0.94992
    outer loop
      vertex -1.26558 -0.919499 -9.87688
      vertex -3.67286 -2.66849 -8.91007
      vertex -4.31771 -1.40291 -8.91007
    endloop
  endfacet
  facet normal -0.220965 -0.220965 -0.94992
    outer loop
      vertex -1.26558 -0.919499 -9.87688
      vertex -0.919499 -1.26558 -9.87688
      vertex -3.67286 -2.66849 -8.91007
    endloop
  endfacet
  facet normal -0.220965 -0.220965 -0.94992
    outer loop
      vertex -0.919499 -1.26558 -9.87688
      vertex -2.66849 -3.67286 -8.91007
      vertex -3.67286 -2.66849 -8.91007
    endloop
  endfacet
  facet normal -0.141869 -0.278432 -0.94992
    outer loop
      vertex -0.919499 -1.26558 -9.87688
      vertex -0.483409 -1.48778 -9.87688
      vertex -2.66849 -3.67286 -8.91007
    endloop
  endfacet
  facet normal -0.141869 -0.278432 -0.94992
    outer loop
      vertex -0.483409 -1.48778 -9.87688
      vertex -1.40291 -4.31771 -8.91007
      vertex -2.66849 -3.67286 -8.91007
    endloop
  endfacet
  facet normal -0.0488818 -0.308646 -0.94992
    outer loop
      vertex -0.483409 -1.48778 -9.87688
      vertex -0 -1.56434 -9.87688
      vertex -1.40291 -4.31771 -8.91007
    endloop
  endfacet
  facet normal -0.0488846 -0.308644 -0.949921
    outer loop
      vertex -0 -1.56434 -9.87688
      vertex -0 -4.53991 -8.91007
      vertex -1.40291 -4.31771 -8.91007
    endloop
  endfacet
  facet normal 0.0488816 -0.308644 -0.949921
    outer loop
      vertex -0 -1.56434 -9.87688
      vertex 0.483409 -1.48778 -9.87688
      vertex -0 -4.53991 -8.91007
    endloop
  endfacet
  facet normal 0.0488847 -0.308645 -0.94992
    outer loop
      vertex 0.483409 -1.48778 -9.87688
      vertex 1.40291 -4.31771 -8.91007
      vertex -0 -4.53991 -8.91007
    endloop
  endfacet
  facet normal 0.141869 -0.278432 -0.94992
    outer loop
      vertex 0.483409 -1.48778 -9.87688
      vertex 0.919499 -1.26558 -9.87688
      vertex 1.40291 -4.31771 -8.91007
    endloop
  endfacet
  facet normal 0.141869 -0.278432 -0.94992
    outer loop
      vertex 0.919499 -1.26558 -9.87688
      vertex 2.66849 -3.67286 -8.91007
      vertex 1.40291 -4.31771 -8.91007
    endloop
  endfacet
  facet normal 0.220965 -0.220965 -0.94992
    outer loop
      vertex 0.919499 -1.26558 -9.87688
      vertex 1.26558 -0.919499 -9.87688
      vertex 2.66849 -3.67286 -8.91007
    endloop
  endfacet
  facet normal 0.220965 -0.220965 -0.94992
    outer loop
      vertex 1.26558 -0.919499 -9.87688
      vertex 3.67286 -2.66849 -8.91007
      vertex 2.66849 -3.67286 -8.91007
    endloop
  endfacet
  facet normal 0.278432 -0.141869 -0.94992
    outer loop
      vertex 1.26558 -0.919499 -9.87688
      vertex 1.48778 -0.483409 -9.87688
      vertex 3.67286 -2.66849 -8.91007
    endloop
  endfacet
  facet normal 0.278432 -0.141869 -0.94992
    outer loop
      vertex 1.48778 -0.483409 -9.87688
      vertex 4.31771 -1.40291 -8.91007
      vertex 3.67286 -2.66849 -8.91007
    endloop
  endfacet
  facet normal 0.308646 -0.0488818 -0.94992
    outer loop
      vertex 1.48778 -0.483409 -9.87688
      vertex 1.56434 0 -9.87688
      vertex 4.31771 -1.40291 -8.91007
    endloop
  endfacet
  facet normal 0.308644 -0.0488846 -0.949921
    outer loop
      vertex 1.56434 0 -9.87688
      vertex 4.53991 0 -8.91007
      vertex 4.31771 -1.40291 -8.91007
    endloop
  endfacet
  facet normal 0 0 -1
    outer loop
      vertex 1.48778 -0.483409 -9.87688
      vertex 1.48778 0.483409 -9.87688
      vertex 1.56434 0 -9.87688
    endloop
  endfacet
  facet normal 0 0 -1
    outer loop
      vertex 1.26558 -0.919499 -9.87688
      vertex 1.48778 0.483409 -9.87688
      vertex 1.48778 -0.483409 -9.87688
    endloop
  endfacet
  facet normal 0 0 -1
    outer loop
      vertex 1.26558 -0.919499 -9.87688
      vertex 1.26558 0.919499 -9.87688
      vertex 1.48778 0.483409 -9.87688
    endloop
  endfacet
  facet normal 0 0 -1
    outer loop
      vertex 0.919499 -1.26558 -9.87688
      vertex 1.26558 0.919499 -9.87688
      vertex 1.26558 -0.919499 -9.87688
    endloop
  endfacet
  facet normal 0 0 -1
    outer loop
      vertex 0.919499 -1.26558 -9.87688
      vertex 0.919499 1.26558 -9.87688
      vertex 1.26558 0.919499 -9.87688
    endloop
  endfacet
  facet normal 0 0 -1
    outer loop
      vertex 0.483409 -1.48778 -9.87688
      vertex 0.919499 1.26558 -9.87688
      vertex 0.919499 -1.26558 -9.87688
    endloop
  endfacet
  facet normal 0 0 -1
    outer loop
      vertex 0.483409 -1.48778 -9.87688
      vertex 0.483409 1.48778 -9.87688
      vertex 0.919499 1.26558 -9.87688
    endloop
  endfacet
  facet normal 0 0 -1
    outer loop
      vertex -0 -1.56434 -9.87688
      vertex 0.483409 1.48778 -9.87688
      vertex 0.483409 -1.48778 -9.87688
    endloop
  endfacet
  facet normal 0 0 -1
    outer loop
      vertex -0 -1.56434 -9.87688
      vertex 0 1.56434 -9.87688
      vertex 0.483409 1.48778 -9.87688
    endloop
  endfacet
  facet normal 0 0 -1
    outer loop
      vertex -0.483409 -1.48778 -9.87688
      vertex 0 1.56434 -9.87688
      vertex -0 -1.56434 -9.87688
    endloop
  endfacet
  facet normal 0 0 -1
    outer loop
      vertex -0.483409 -1.48778 -9.87688
      vertex -0.483409 1.48778 -9.87688
      vertex 0 1.56434 -9.87688
    endloop
  endfacet
  facet normal 0 0 -1
    outer loop
      vertex -0.919499 -1.26558 -9.87688
      vertex -0.483409 1.48778 -9.87688
      vertex -0.483409 -1.48778 -9.87688
    endloop
  endfacet
  facet normal 0 0 -1
    outer loop
      vertex -0.919499 -1.26558 -9.87688
      vertex -0.919499 1.26558 -9.87688
      vertex -0.483409 1.48778 -9.87688
    endloop
  endfacet
  facet normal 0 0 -1
    outer loop
      vertex -1.26558 -0.919499 -9.87688
      vertex -0.919499 1.26558 -9.87688
      vertex -0.919499 -1.26558 -9.87688
    endloop
  endfacet
  facet normal 0 0 -1
    outer loop
      vertex -1.26558 -0.919499 -9.87688
      vertex -1.26558 0.919499 -9.87688
      vertex -0.919499 1.26558 -9.87688
    endloop
  endfacet
  facet normal 0 0 -1
    outer loop
      vertex -1.48778 -0.483409 -9.87688
      vertex -1.26558 0.919499 -9.87688
      vertex -1.26558 -0.919499 -9.87688
    endloop
  endfacet
  facet normal 0 0 -1
    outer loop
      vertex -1.48778 -0.483409 -9.87688
      vertex -1.48778 0.483409 -9.87688
      vertex -1.26558 0.919499 -9.87688
    endloop
  endfacet
  facet normal 0 -0 -1
    outer loop
      vertex -1.48778 0.483409 -9.87688
      vertex -1.48778 -0.483409 -9.87688
      vertex -1.56434 -0 -9.87688
    endloop
  endfacet
endsolid OpenSCAD_Model
